<svg xmlns="http://www.w3.org/2000/svg" width="240" height="240" viewBox="0 0 240 240" fill="none">
<defs><linearGradient id="tile" x1="30" y1="20" x2="210" y2="220" gradientUnits="userSpaceOnUse"><stop stop-color="#eee7fc"/><stop offset="1" stop-color="#e6effb"/></linearGradient><linearGradient id="book" x1="68" y1="72" x2="175" y2="174" gradientUnits="userSpaceOnUse"><stop stop-color="#a18bea"/><stop offset="1" stop-color="#7460d6"/></linearGradient></defs>
<rect width="240" height="240" rx="32" fill="url(#tile)"/>
<circle cx="120" cy="120" r="80" fill="white" fill-opacity=".55"/>
<path d="M120 91c-17-13-35-17-58-13v83c23-4 41 0 58 13 17-13 35-17 58-13V78c-23-4-41 0-58 13Z" fill="url(#book)"/>
<path d="M120 94v76M78 100c11 0 19 2 27 7m-27 13c11 0 19 2 27 7m30-20c8-5 16-7 27-7m-27 27c8-5 16-7 27-7" stroke="white" stroke-width="6" stroke-linecap="round"/>
<path d="m174 39 3 10 10 3-10 3-3 10-3-10-10-3 10-3 3-10Z" fill="#ed5bc5"/>
<circle cx="56" cy="185" r="5" fill="#a18bea"/>
</svg>